# WaveFront *.obj file (generated by Autodesk ATF)

mtllib 742dd17c-2309-4dc8-b600-9ee6e35fd2a8.mtl

g Body1

v -0.420000 0.030000 0.420000
v -0.420000 0.030000 -0.420000
v -0.420000 0.700000 -0.420000
v -0.420000 0.700000 0.420000
v 0.420000 0.030000 -0.420000
v 0.420000 0.700000 -0.420000
v 0.420000 0.030000 0.420000
v 0.420000 0.700000 0.420000
v -0.450000 0.000000 -0.450000
v -0.450000 0.000000 0.450000
v -0.450000 0.700000 0.450000
v -0.450000 0.700000 -0.450000
v 0.450000 0.000000 -0.450000
v 0.450000 0.700000 -0.450000
v 0.450000 0.000000 0.450000
v 0.450000 0.700000 0.450000
vt -87.000000 3.000000 0.000000
vt -3.000000 3.000000 0.000000
vt -87.000000 70.000000 0.000000
vt -3.000000 70.000000 0.000000
vt -87.000000 3.000000 0.000000
vt -3.000000 3.000000 0.000000
vt -87.000000 70.000000 0.000000
vt -3.000000 70.000000 0.000000
vt -87.000000 3.000000 0.000000
vt -3.000000 3.000000 0.000000
vt -87.000000 70.000000 0.000000
vt -3.000000 70.000000 0.000000
vt -87.000000 3.000000 0.000000
vt -3.000000 3.000000 0.000000
vt -87.000000 70.000000 0.000000
vt -3.000000 70.000000 0.000000
vt -42.000000 -42.000000 0.000000
vt 42.000000 -42.000000 0.000000
vt -42.000000 42.000000 0.000000
vt 42.000000 42.000000 0.000000
vt 0.000000 0.000000 0.000000
vt 90.000000 0.000000 0.000000
vt 0.000000 70.000000 0.000000
vt 90.000000 70.000000 0.000000
vt -0.000000 0.000000 0.000000
vt 90.000000 0.000000 0.000000
vt -0.000000 70.000000 0.000000
vt 90.000000 70.000000 0.000000
vt -0.000000 0.000000 0.000000
vt 90.000000 0.000000 0.000000
vt -0.000000 70.000000 0.000000
vt 90.000000 70.000000 0.000000
vt 0.000000 0.000000 0.000000
vt 90.000000 0.000000 0.000000
vt 0.000000 70.000000 0.000000
vt 90.000000 70.000000 0.000000
vt 42.000000 42.000000 0.000000
vt 42.000000 -42.000000 0.000000
vt 45.000000 -45.000000 0.000000
vt -42.000000 -42.000000 0.000000
vt -45.000000 -45.000000 0.000000
vt -42.000000 42.000000 0.000000
vt -45.000000 45.000000 0.000000
vt 45.000000 45.000000 0.000000
vt -45.000000 -45.000000 0.000000
vt 45.000000 -45.000000 0.000000
vt -45.000000 45.000000 0.000000
vt 45.000000 45.000000 0.000000
vn 100.000000 0.000000 0.000000
vn 100.000000 0.000000 0.000000
vn 100.000000 0.000000 0.000000
vn 100.000000 0.000000 0.000000
vn 0.000000 0.000000 100.000000
vn 0.000000 0.000000 100.000000
vn 0.000000 0.000000 100.000000
vn 0.000000 0.000000 100.000000
vn -100.000000 0.000000 0.000000
vn -100.000000 0.000000 0.000000
vn -100.000000 0.000000 0.000000
vn -100.000000 0.000000 0.000000
vn -0.000000 0.000000 -100.000000
vn -0.000000 0.000000 -100.000000
vn -0.000000 0.000000 -100.000000
vn -0.000000 0.000000 -100.000000
vn 0.000000 100.000000 0.000000
vn 0.000000 100.000000 0.000000
vn 0.000000 100.000000 0.000000
vn 0.000000 100.000000 0.000000
vn -100.000000 0.000000 0.000000
vn -100.000000 0.000000 0.000000
vn -100.000000 0.000000 0.000000
vn -100.000000 0.000000 0.000000
vn 0.000000 0.000000 -100.000000
vn 0.000000 0.000000 -100.000000
vn 0.000000 0.000000 -100.000000
vn 0.000000 0.000000 -100.000000
vn 100.000000 0.000000 -0.000000
vn 100.000000 0.000000 -0.000000
vn 100.000000 0.000000 -0.000000
vn 100.000000 0.000000 -0.000000
vn 0.000000 -0.000000 100.000000
vn 0.000000 -0.000000 100.000000
vn 0.000000 -0.000000 100.000000
vn 0.000000 -0.000000 100.000000
vn 0.000000 100.000000 0.000000
vn 0.000000 100.000000 0.000000
vn 0.000000 100.000000 0.000000
vn 0.000000 100.000000 0.000000
vn 0.000000 100.000000 0.000000
vn 0.000000 100.000000 0.000000
vn 0.000000 100.000000 0.000000
vn 0.000000 100.000000 0.000000
vn 0.000000 -100.000000 0.000000
vn 0.000000 -100.000000 0.000000
vn 0.000000 -100.000000 0.000000
vn 0.000000 -100.000000 0.000000
usemtl Surface_-_Matte
f 1/1/1 2/2/2 4/3/3
f 4/3/3 2/2/2 3/4/4
f 2/5/5 5/6/6 3/7/7
f 3/7/7 5/6/6 6/8/8
f 5/9/9 7/10/10 6/11/11
f 6/11/11 7/10/10 8/12/12
f 7/13/13 1/14/14 8/15/15
f 8/15/15 1/14/14 4/16/16
f 1/17/17 7/18/18 2/19/19
f 2/19/19 7/18/18 5/20/20
f 9/21/21 10/22/22 12/23/23
f 12/23/23 10/22/22 11/24/24
f 13/25/25 9/26/26 14/27/27
f 14/27/27 9/26/26 12/28/28
f 15/29/29 13/30/30 16/31/31
f 16/31/31 13/30/30 14/32/32
f 10/33/33 15/34/34 11/35/35
f 11/35/35 15/34/34 16/36/36
f 8/37/37 4/38/38 11/39/39
f 11/39/39 4/38/38 3/40/40
f 11/39/39 3/40/40 12/41/41
f 12/41/41 3/40/40 6/42/42
f 12/41/41 6/42/42 14/43/43
f 14/43/43 6/42/42 8/37/37
f 14/43/43 8/37/37 16/44/44
f 16/44/44 8/37/37 11/39/39
f 15/45/45 10/46/46 13/47/47
f 13/47/47 10/46/46 9/48/48
# 16 vertices
# 48 texture params
# 48 normals
# 28 facets

# 1 groups
