# Blender 3.3.0
# www.blender.org
mtllib test2.mtl
o inventory_box_v1
v 0.025000 0.200000 0.200000
v 0.025000 0.200000 -0.200000
v 0.450000 0.200000 -0.200000
v 0.450000 0.200000 0.200000
v 0.025000 -0.200000 -0.200000
v 0.450000 -0.200000 -0.200000
v 0.025000 -0.200000 0.200000
v 0.450000 -0.200000 0.200000
v 0.000000 0.225000 -0.225000
v 0.000000 0.225000 0.225000
v 0.450000 0.225000 0.225000
v 0.450000 0.225000 -0.225000
v 0.000000 -0.225000 -0.225000
v 0.450000 -0.225000 -0.225000
v 0.000000 -0.225000 0.225000
v 0.450000 -0.225000 0.225000
vn -0.0000 -1.0000 -0.0000
vn -0.0000 -0.0000 1.0000
vn -0.0000 1.0000 -0.0000
vn -0.0000 -0.0000 -1.0000
vn 1.0000 -0.0000 -0.0000
vn -1.0000 -0.0000 -0.0000
vt -42.500000 2.500000
vt -2.500000 2.500000
vt 20.000000 20.000000
vt -2.500000 2.500000
vt -42.500000 2.500000
vt 20.000000 -20.000000
vt -2.500000 45.000000
vt -42.500000 45.000000
vt 20.000000 20.000000
vt -42.500000 45.000000
vt -2.500000 45.000000
vt -20.000000 20.000000
vt -2.500000 2.500000
vt -42.500000 2.500000
vt -20.000000 -20.000000
vt -2.500000 45.000000
vt -42.500000 45.000000
vt 20.000000 -20.000000
vt -2.500000 2.500000
vt -42.500000 2.500000
vt -20.000000 20.000000
vt -2.500000 45.000000
vt -42.500000 45.000000
vt -20.000000 -20.000000
vt 0.000000 0.000000
vt 45.000000 0.000000
vt -22.500000 -22.500000
vt 45.000000 0.000000
vt -0.000000 0.000000
vt -22.500000 22.500000
vt 45.000000 45.000000
vt -0.000000 45.000000
vt -22.500000 22.500000
vt 0.000000 45.000000
vt 45.000000 45.000000
vt 22.500000 22.500000
vt 0.000000 0.000000
vt 45.000000 0.000000
vt 22.500000 -22.500000
vt 0.000000 45.000000
vt 45.000000 45.000000
vt 22.500000 -22.500000
vt 0.000000 0.000000
vt 45.000000 0.000000
vt 22.500000 22.500000
vt 0.000000 45.000000
vt 45.000000 45.000000
vt -22.500000 -22.500000
s 0
usemtl Oak
f 1/1/1 2/4/1 4/10/1
f 4/10/1 2/4/1 3/7/1
f 2/5/2 5/13/2 3/8/2
f 3/8/2 5/13/2 6/16/2
f 5/14/3 7/19/3 6/17/3
f 6/17/3 7/19/3 8/22/3
f 7/20/4 1/2/4 8/23/4
f 8/23/4 1/2/4 4/11/4
f 1/3/5 7/21/5 2/6/5
f 2/6/5 7/21/5 5/15/5
f 9/25/3 10/28/3 12/34/3
f 12/34/3 10/28/3 11/31/3
f 13/37/4 9/26/4 14/40/4
f 14/40/4 9/26/4 12/35/4
f 15/43/1 13/38/1 16/46/1
f 16/46/1 13/38/1 14/41/1
f 10/29/2 15/44/2 11/32/2
f 11/32/2 15/44/2 16/47/2
f 3/9/5 11/33/5 4/12/5
f 4/12/5 11/33/5 16/48/5
f 4/12/5 16/48/5 8/24/5
f 8/24/5 16/48/5 14/42/5
f 8/24/5 14/42/5 6/18/5
f 6/18/5 14/42/5 3/9/5
f 3/9/5 14/42/5 12/36/5
f 3/9/5 12/36/5 11/33/5
f 15/45/6 10/30/6 13/39/6
f 13/39/6 10/30/6 9/27/6
